<svg width="13" height="13" viewBox="0 0 13 13" fill="none" xmlns="http://www.w3.org/2000/svg">
<g id="telephone-fill 1" clip-path="url(#clip0_79_72)">
<path id="Vector" fill-rule="evenodd" clip-rule="evenodd" d="M1.49198 0.951475C1.62321 0.820442 1.78079 0.718794 1.95428 0.653268C2.12777 0.587742 2.3132 0.559833 2.49829 0.571393C2.68338 0.582952 2.8639 0.633714 3.02788 0.720316C3.19187 0.806919 3.33558 0.927382 3.44948 1.07373L4.79573 2.80323C5.04248 3.12048 5.12948 3.53373 5.03198 3.92373L4.62173 5.56623C4.60067 5.65131 4.60189 5.74038 4.62527 5.82485C4.64866 5.90932 4.69342 5.98634 4.75523 6.04848L6.59798 7.89123C6.66019 7.95317 6.73734 7.998 6.82196 8.02139C6.90657 8.04478 6.99579 8.04593 7.08098 8.02473L8.72273 7.61448C8.91522 7.56663 9.11604 7.56304 9.31011 7.60396C9.50418 7.64487 9.68645 7.72924 9.84324 7.85073L11.5727 9.19623C12.1945 9.67998 12.2515 10.5987 11.695 11.1545L10.9195 11.93C10.3645 12.485 9.53498 12.7287 8.76173 12.4565C6.78224 11.7609 4.98514 10.6278 3.50423 9.14148C2.01801 7.66079 0.884898 5.86395 0.189234 3.88473C-0.0822659 3.11223 0.161484 2.28198 0.716484 1.72698L1.49198 0.951475Z" fill="#4880FF"/>
</g>
<defs>
<clipPath id="clip0_79_72">
<rect width="12" height="12" fill="white" transform="translate(0.0783691 0.568359)"/>
</clipPath>
</defs>
</svg>
