<svg width="50" height="50" viewBox="0 0 50 50" fill="none" xmlns="http://www.w3.org/2000/svg">
<g id="upload-cloud 1">
<path id="Vector" d="M25 39.5834V25.0001M25 25.0001L20.3125 29.8611M25 25.0001L29.6875 29.8611M13.75 37.1528C9.60787 37.1528 6.25 33.7328 6.25 29.514C6.25 26.0376 8.52996 23.1036 11.65 22.1786C11.7825 22.1392 11.875 22.0157 11.875 21.8751C11.875 15.5468 16.9118 10.4167 23.125 10.4167C29.3381 10.4167 34.375 15.5468 34.375 21.8751C34.375 21.9963 34.4867 22.0863 34.6029 22.0599C35.1329 21.9388 35.6842 21.8751 36.25 21.8751C40.3921 21.8751 43.75 25.2951 43.75 29.514C43.75 33.7328 40.3921 37.1528 36.25 37.1528" stroke="#667085" stroke-width="2.08333" stroke-linecap="round" stroke-linejoin="round"/>
</g>
</svg>
