<svg width="13" height="13" viewBox="0 0 13 13" fill="none" xmlns="http://www.w3.org/2000/svg">
<g id="restaurant 1" clip-path="url(#clip0_79_595)">
<path id="path11774" d="M3.19258 0.588379L2.39258 4.98838C2.27546 5.63238 3.81778 5.93318 3.79258 6.58838L3.59258 11.7884C3.56186 12.5878 4.39258 12.5884 4.39258 12.5884C4.39258 12.5884 5.2233 12.5878 5.19258 11.7884L4.99258 6.58838C4.96746 5.9343 6.3793 5.64374 6.39258 4.98838L5.59258 0.588379H5.19258L5.39258 3.78838L4.79258 4.18838L4.59258 0.588379H4.19258L3.99258 4.18838L3.39258 3.78838L3.59258 0.588379H3.19258ZM9.99258 0.588379C9.40346 0.588379 8.42122 1.1123 8.0285 1.89774C7.70122 2.48686 7.59258 3.80294 7.59258 4.58838V6.58838C7.59258 7.24294 8.4653 7.38838 8.79258 7.38838L8.39258 11.7884C8.32018 12.5851 9.19258 12.5884 9.19258 12.5884C9.19258 12.5884 9.99258 12.5884 9.99258 11.7884V0.588379Z" fill="#4880FF"/>
</g>
<defs>
<clipPath id="clip0_79_595">
<rect width="12" height="12" fill="white" transform="translate(0.392578 0.588379)"/>
</clipPath>
</defs>
</svg>
