<svg width="12" height="18" viewBox="0 0 12 18" fill="none" xmlns="http://www.w3.org/2000/svg">
<path id="path11774" d="M1.50493 0L0.304934 6.6C0.129254 7.566 2.44273 8.0172 2.40493 9L2.10493 16.8C2.05885 17.9992 3.30493 18 3.30493 18C3.30493 18 4.55101 17.9992 4.50493 16.8L4.20493 9C4.16725 8.01888 6.28501 7.58304 6.30493 6.6L5.10493 0H4.50493L4.80493 4.8L3.90493 5.4L3.60493 0H3.00493L2.70493 5.4L1.80493 4.8L2.10493 0H1.50493ZM11.7049 0C10.8213 0 9.34789 0.78588 8.75881 1.96404C8.26789 2.84772 8.10493 4.82184 8.10493 6V9C8.10493 9.98184 9.41401 10.2 9.90493 10.2L9.30493 16.8C9.19633 17.9951 10.5049 18 10.5049 18C10.5049 18 11.7049 18 11.7049 16.8V0Z" fill="#202224"/>
</svg>
