<svg width="18" height="18" viewBox="0 0 18 18" fill="none" xmlns="http://www.w3.org/2000/svg">
<path id="Vector" d="M0 9C0 6.61305 0.948212 4.32387 2.63604 2.63604C4.32387 0.948212 6.61305 0 9 0C11.3869 0 13.6761 0.948212 15.364 2.63604C17.0518 4.32387 18 6.61305 18 9C18 11.3869 17.0518 13.6761 15.364 15.364C13.6761 17.0518 11.3869 18 9 18C6.61305 18 4.32387 17.0518 2.63604 15.364C0.948212 13.6761 0 11.3869 0 9ZM8.4375 1.21162C7.68375 1.44113 6.93563 2.13412 6.31462 3.2985C6.15337 3.60075 6.00525 3.92775 5.87025 4.2795C6.66337 4.45612 7.52625 4.56862 8.4375 4.60238V1.21162ZM4.78013 3.98137C4.94063 3.54862 5.121 3.14437 5.32125 2.76863C5.51705 2.40156 5.74163 2.05059 5.99288 1.719C5.03499 2.11564 4.16484 2.69752 3.43238 3.43125C3.84038 3.639 4.28963 3.82162 4.78013 3.98137ZM3.94763 8.4375C3.98813 7.23375 4.15912 6.08963 4.43813 5.0535C3.82887 4.85953 3.23937 4.60828 2.6775 4.30312C1.78126 5.50602 1.24942 6.94105 1.14525 8.4375H3.94763ZM5.52262 5.35387C5.25699 6.36153 5.10604 7.39596 5.07262 8.4375H8.4375V5.72738C7.41375 5.69362 6.43162 5.56425 5.52262 5.35387ZM9.5625 5.72625V8.4375H12.9262C12.8932 7.396 12.7426 6.36157 12.4774 5.35387C11.5684 5.56425 10.5863 5.69138 9.5625 5.72625ZM5.07375 9.5625C5.11313 10.6729 5.27175 11.7157 5.52262 12.6461C6.48005 12.4288 7.45618 12.3041 8.4375 12.2738V9.5625H5.07375ZM9.5625 9.5625V12.2726C10.5863 12.3064 11.5684 12.4358 12.4774 12.6461C12.7282 11.7157 12.8869 10.6729 12.9274 9.5625H9.5625ZM5.87025 13.7205C6.00525 14.0723 6.15337 14.3993 6.31462 14.7015C6.93563 15.8659 7.68488 16.5578 8.4375 16.7884V13.3988C7.52625 13.4325 6.66337 13.5439 5.87025 13.7205ZM5.994 16.281C5.74236 15.9495 5.51741 15.5985 5.32125 15.2314C5.11449 14.839 4.93372 14.4335 4.78013 14.0175C4.31737 14.1663 3.86678 14.3506 3.43238 14.5687C4.16484 15.3025 5.03611 15.8844 5.994 16.281ZM4.43813 12.9465C4.14643 11.8408 3.9815 10.7055 3.9465 9.5625H1.14525C1.24942 11.0589 1.78126 12.494 2.6775 13.6969C3.20625 13.4066 3.79688 13.1546 4.43813 12.9465ZM12.0071 16.281C12.9645 15.8846 13.8343 15.3031 14.5665 14.5699C14.1325 14.3518 13.6823 14.1675 13.2199 14.0186C13.0662 14.4343 12.8855 14.8394 12.6788 15.2314C12.483 15.5984 12.2584 15.9494 12.0071 16.281ZM9.5625 13.3976V16.7884C10.3162 16.5589 11.0644 15.8659 11.6854 14.7015C11.8474 14.3993 11.9955 14.0723 12.1297 13.7205C11.2856 13.5352 10.4263 13.4264 9.5625 13.3976ZM13.5619 12.9465C14.2031 13.1546 14.7937 13.4066 15.3225 13.6969C16.2187 12.494 16.7506 11.0589 16.8547 9.5625H14.0535C14.0185 10.7055 13.8536 11.8408 13.5619 12.9465ZM16.8547 8.4375C16.7506 6.94105 16.2187 5.50602 15.3225 4.30312C14.7937 4.59338 14.2031 4.84538 13.5619 5.0535C13.8409 6.0885 14.0119 7.23375 14.0535 8.4375H16.8547ZM12.6788 2.76863C12.8783 3.14512 13.059 3.54938 13.221 3.98137C13.683 3.83245 14.1328 3.64816 14.5665 3.43012C13.8342 2.69732 12.9644 2.11622 12.0071 1.72013C12.2524 2.0385 12.4774 2.39175 12.6788 2.76863ZM12.1297 4.2795C12.0013 3.94392 11.8529 3.61634 11.6854 3.2985C11.0644 2.13412 10.3162 1.44225 9.5625 1.21162V4.60125C10.4738 4.5675 11.3366 4.45612 12.1297 4.2795Z" fill="black"/>
</svg>
