<svg width="13" height="13" viewBox="0 0 13 13" fill="none" xmlns="http://www.w3.org/2000/svg">
<g id="location-pin 1" clip-path="url(#clip0_79_592)">
<path id="Vector" d="M6.23535 0.588379C3.75023 0.588379 1.73535 2.60325 1.73535 5.08838C1.73535 6.06694 2.05616 6.96488 2.58941 7.70025C2.59898 7.71788 2.60048 7.73757 2.61135 7.75444L5.61135 12.2544C5.75048 12.4631 5.98485 12.5884 6.23535 12.5884C6.48585 12.5884 6.72023 12.4631 6.85935 12.2544L9.85935 7.75444C9.87041 7.73757 9.87173 7.71788 9.88129 7.70025C10.4145 6.96488 10.7354 6.06694 10.7354 5.08838C10.7354 2.60325 8.72048 0.588379 6.23535 0.588379ZM6.23535 6.58838C5.40698 6.58838 4.73535 5.91675 4.73535 5.08838C4.73535 4.26 5.40698 3.58838 6.23535 3.58838C7.06373 3.58838 7.73535 4.26 7.73535 5.08838C7.73535 5.91675 7.06373 6.58838 6.23535 6.58838Z" fill="#4880FF"/>
</g>
<defs>
<clipPath id="clip0_79_592">
<rect width="12" height="12" fill="white" transform="translate(0.235352 0.588379)"/>
</clipPath>
</defs>
</svg>
