<svg width="16" height="16" viewBox="0 0 16 16" fill="none" xmlns="http://www.w3.org/2000/svg">
<path id="Vector" d="M3.90348 1.13455L3.9035 1.13457L5.69826 3.44026C5.69828 3.44029 5.69831 3.44033 5.69833 3.44036C5.69837 3.4404 5.6984 3.44045 5.69844 3.4405C5.88559 3.68126 5.95182 3.99521 5.87766 4.29186L5.87762 4.29202L5.33063 6.48195L5.33026 6.48346C5.2712 6.72201 5.27462 6.97176 5.34019 7.20861C5.40575 7.44546 5.53125 7.66141 5.70457 7.83563L5.70595 7.837L8.16287 10.2939L8.16402 10.2951C8.33845 10.4688 8.55476 10.5945 8.79201 10.66C9.02926 10.7256 9.27943 10.7288 9.5183 10.6694L9.519 10.6692L11.707 10.1225C11.7072 10.1224 11.7075 10.1224 11.7077 10.1223C11.8541 10.086 12.0069 10.0833 12.1545 10.1144C12.3022 10.1456 12.441 10.2098 12.5603 10.3022C12.5604 10.3023 12.5606 10.3024 12.5607 10.3025L14.8654 12.0955C15.3388 12.4638 15.3812 13.1622 14.959 13.5838L14.9587 13.5841L13.9247 14.6181C13.3641 15.1787 12.5544 15.399 11.8272 15.143L11.8267 15.1428C9.29392 14.2528 6.99448 12.803 5.09963 10.9012L5.09767 10.8992C3.19601 9.00464 1.74615 6.70554 0.856032 4.17307C0.600725 3.44664 0.821156 2.6358 1.38177 2.07518L2.41534 1.04162C2.41541 1.04155 2.41548 1.04148 2.41554 1.04142C2.51527 0.941898 2.63499 0.864692 2.76679 0.814911C2.89868 0.765096 3.03965 0.74388 3.18036 0.752667C3.32107 0.761455 3.4583 0.800046 3.58297 0.865883C3.70764 0.93172 3.81689 1.0233 3.90348 1.13455Z" stroke="#202224" stroke-width="1.5"/>
</svg>
