<svg width="22" height="22" viewBox="0 0 22 22" fill="none" xmlns="http://www.w3.org/2000/svg">
<g id="printer(1) 1">
<path id="Vector" d="M5.75 8.375V2.25H16.25V8.375" stroke="#4880FF" stroke-width="1.5" stroke-linecap="round" stroke-linejoin="round"/>
<path id="Vector_2" d="M5.75 16.25H4C3.53587 16.25 3.09075 16.0656 2.76256 15.7374C2.43437 15.4092 2.25 14.9641 2.25 14.5V10.125C2.25 9.66087 2.43437 9.21575 2.76256 8.88756C3.09075 8.55937 3.53587 8.375 4 8.375H18C18.4641 8.375 18.9092 8.55937 19.2374 8.88756C19.5656 9.21575 19.75 9.66087 19.75 10.125V14.5C19.75 14.9641 19.5656 15.4092 19.2374 15.7374C18.9092 16.0656 18.4641 16.25 18 16.25H16.25" stroke="#4880FF" stroke-width="1.5" stroke-linecap="round" stroke-linejoin="round"/>
<path id="Vector_3" d="M16.25 12.75H5.75V19.75H16.25V12.75Z" stroke="#4880FF" stroke-width="1.5" stroke-linecap="round" stroke-linejoin="round"/>
</g>
</svg>
