<svg width="18" height="18" viewBox="0 0 18 18" fill="none" xmlns="http://www.w3.org/2000/svg">
<path id="Vector" d="M18 9C18 11.3869 17.0518 13.6761 15.364 15.364C13.6761 17.0518 11.3869 18 9 18C6.61305 18 4.32387 17.0518 2.63604 15.364C0.948212 13.6761 0 11.3869 0 9C0 6.61305 0.948212 4.32387 2.63604 2.63604C4.32387 0.948212 6.61305 0 9 0C11.3869 0 13.6761 0.948212 15.364 2.63604C17.0518 4.32387 18 6.61305 18 9ZM12.9375 15.822L11.4964 10.539C11.4638 10.4199 11.3929 10.3149 11.2947 10.2401C11.1965 10.1653 11.0765 10.1248 10.953 10.125H7.047C6.92355 10.1248 6.80347 10.1653 6.70527 10.2401C6.60707 10.3149 6.53622 10.4199 6.50362 10.539L5.06362 15.822C6.26003 16.5138 7.61801 16.877 9 16.875C10.4344 16.875 11.7788 16.4925 12.9375 15.822ZM13.9196 15.1493C15.1938 14.1298 16.1199 12.7398 16.5698 11.1712C17.0197 9.60265 16.9712 7.93307 16.431 6.39326C15.8909 4.85345 14.8857 3.51946 13.5545 2.5757C12.2233 1.63195 10.6318 1.12503 9 1.12503C7.36819 1.12503 5.77669 1.63195 4.44548 2.5757C3.11427 3.51946 2.10912 4.85345 1.56896 6.39326C1.0288 7.93307 0.980321 9.60265 1.43022 11.1712C1.88012 12.7398 2.80617 14.1298 4.08038 15.1493L5.41913 10.2443C5.50939 9.91237 5.69892 9.616 5.96231 9.39483C6.2257 9.17366 6.55039 9.03826 6.89287 9.00675L8.19225 4.67438C8.43188 3.87225 9.56813 3.87225 9.80775 4.67438L11.1082 9.00675C11.4507 9.03826 11.7754 9.17366 12.0388 9.39483C12.3022 9.616 12.4917 9.91237 12.582 10.2443L13.9196 15.1493Z" fill="black"/>
</svg>
